# xmcd
#
# Track frame offsets:
#	150
#	22320
#	26322
#	57447
#	70942
#	88877
#	128280
#	148305
#	170855
#	180680
#	188140
#	235612
#	250272
#	264612
#	270155
#	283645
#	318495
#
# Disc length: 4422 seconds
#
# Revision: 3
# Processed by: cddbd v1.5.2PL0 Copyright (c) Steve Scherf et al.
# Submitted via: EZCDAudioConverter 2.1.7.1
#
DISCID=f9114411
DTITLE=Béla Fleck and Edgar Meyer - Music For Two
DYEAR=2000
DGENRE=
TTITLE0=Bug Tussle
TTITLE1=Invention No. 10
TTITLE2=Pile-Up
TTITLE3=Prelude No. 24
TTITLE4=Solar
TTITLE5=Blue Spruce
TTITLE6=Canon
TTITLE7=The One I Left Behind
TTITLE8=Menuett I-II From Partita No. 1
TTITLE9=Prelude No. 2
TTITLE10=Palmyra
TTITLE11=The Lake Effect
TTITLE12=Largo from Sonata
TTITLE13=Allegro Vivace from Sonata
TTITLE14=Wrong Number
TTITLE15=Woolly Mammoth
TTITLE16=Wishful Thinking
EXTD=
EXTT0=
EXTT1=
EXTT2=
EXTT3=
EXTT4=
EXTT5=
EXTT6=
EXTT7=
EXTT8=
EXTT9=
EXTT10=
EXTT11=
EXTT12=
EXTT13=
EXTT14=
EXTT15=
EXTT16=
PLAYORDER=
